<svg width="288" height="101" viewBox="0 0 288 101" fill="none" xmlns="http://www.w3.org/2000/svg">
<path d="M132.073 28.9935C132.167 27.4069 132.967 26.6136 134.379 28.0136C135.79 29.4135 136.449 31.9802 136.12 34.1735C135.037 41.7335 132.45 61.0068 131.367 76.1268C131.179 78.6934 130.473 79.1601 129.297 79.6734C128.074 80.1867 127.462 80.3267 126.38 80.5134C125.392 80.7001 124.639 80.5134 124.451 78.9267C123.604 71.6934 122.616 63.0601 121.628 54.2402C120.781 60.3068 119.699 69.4534 119.322 75.0534C119.228 76.6401 118.899 77.5267 118.099 78.0868C117.111 78.7401 116.499 78.9734 115.182 79.3001C113.864 79.6267 113.441 79.3001 113.206 78.0868C111.041 65.5801 108.83 49.3868 107.418 35.7135C107.23 34.3135 107.418 33.7535 108.595 32.8202C109.583 31.9802 110.759 31.4202 111.559 30.9069C112.641 30.2535 113.629 30.2535 113.817 31.7935C114.711 42.3868 115.982 53.5868 117.299 63.4801C118.475 55.2668 119.134 46.3535 119.699 41.1735C119.934 38.6069 120.452 37.7202 122.287 36.7402C124.357 35.6669 126.004 35.2469 126.427 38.6535C127.274 45.7935 128.356 54.1935 129.156 61.3801C130.662 48.6402 131.556 37.4869 132.073 28.9935Z" fill="white"/>
<path d="M146.142 32.9602C145.483 48.0334 145.295 63.9934 145.812 76.5934C145.906 78.2267 145.577 78.8334 144.73 79.3C143.883 79.8134 143.224 80.28 141.766 80.9334C140.684 81.4467 139.79 81.0267 139.79 79.7667C139.554 66.9334 139.037 50.3668 139.46 36.6468C139.554 35.2468 139.696 34.2668 140.966 33.4268C142.189 32.5868 143.036 32.1202 144.024 31.7002C145.106 31.2335 146.189 31.3735 146.142 32.9602Z" fill="white"/>
<path d="M149.718 34.5002C148.4 34.5935 148.212 34.0802 148.4 33.3335C148.494 32.8202 148.824 32.2602 149.059 31.7002C149.294 31.1869 149.718 30.8135 150.8 30.7202C155.128 30.3002 161.574 29.5069 168.491 28.9002C169.667 28.8069 170.749 28.8069 169.479 31.1402C168.303 33.2868 167.315 33.2868 165.15 33.4268C164.068 33.5202 162.986 33.6135 161.998 33.6602C161.48 47.8935 161.339 64.4601 161.904 76.7801C161.998 78.4134 161.386 79.0201 160.68 79.4867C159.787 80.1401 159.081 80.4667 157.528 81.1201C156.352 81.6334 155.599 81.2134 155.552 79.9534C155.128 67.8668 155.034 47.7068 155.552 34.0335C153.623 34.2668 151.694 34.4068 149.718 34.5002Z" fill="white"/>
<path d="M181.807 31.6068C181.901 30.2068 182.042 29.2268 183.312 28.5735C184.488 27.9202 185.712 27.4068 186.7 27.0802C187.923 26.6602 188.535 27.1735 188.441 28.6668C187.688 43.2268 187.265 63.2467 187.688 76.08C187.782 77.8067 187.453 78.32 186.512 78.7867C185.618 79.3 184.912 79.7667 183.453 80.42C182.371 80.9333 181.618 80.5134 181.618 79.3467C181.524 75.7067 181.43 71.88 181.43 67.9134C179.595 68.4267 177.948 68.8934 176.302 69.4067C176.396 71.5534 176.396 73.6067 176.49 75.66C176.584 77.2934 176.254 77.9 175.408 78.3667C174.561 78.88 173.808 79.3467 172.349 80C171.361 80.42 170.514 80.0933 170.514 78.8334C170.185 66.0001 169.62 49.4334 170.091 35.7135C170.185 34.3135 170.326 33.3335 171.596 32.4935C172.82 31.6535 173.667 31.1868 174.655 30.7668C175.831 30.2535 176.819 30.4401 176.725 31.9801C176.302 43.1801 176.16 54.7534 176.207 65.2067C177.854 64.6467 179.595 64.0401 181.336 63.5734C181.336 53.2601 181.477 42.1535 181.807 31.6068Z" fill="white"/>
<path d="M221.047 57.7868C221.047 68.8934 219.212 73.9334 216.813 76.4534C214.648 78.7401 212.813 79.7667 209.943 80.7467C208.438 81.2601 207.12 81.3067 205.897 80.0001C203.921 77.8534 202.415 70.4334 202.415 64.1334C202.415 61.7535 203.168 60.6801 203.921 59.9335C205.003 58.9535 206.32 58.3468 207.591 58.0201C208.673 57.6935 209.19 58.2068 209.19 59.4201C209.002 68.7068 210.508 77.2934 212.249 76.6867C214.225 76.0334 215.072 68.1934 214.648 55.6401C214.413 48.3135 213.472 39.7735 212.908 35.0602C212.719 33.8935 213.143 33.2402 213.802 32.7735C214.648 32.2135 216.389 31.3735 217.519 31.0469C218.271 30.8135 219.495 30.4869 219.777 32.2602C220.53 37.6268 221.047 47.5202 221.047 57.7868Z" fill="white"/>
<path d="M228.623 70.2934C228.388 72.86 228.105 75.3334 227.964 77.5267C227.776 79.6734 227.07 82.1467 225.235 83.22C223.165 84.3867 222.977 82.8933 223.165 81.82C224.765 70.8067 228.388 46.9134 230.034 33.9401C230.27 31.9801 230.223 30.7201 232.01 29.9268C233.328 29.3668 234.41 28.8535 236.057 28.3402C237.233 28.0135 238.127 28.5735 238.221 29.8335C239.445 42.9001 241.185 62.5001 242.785 75.1C242.973 76.5 242.691 77.5734 241.562 78.46C240.574 79.3 239.727 79.7667 238.409 80.42C237.515 80.84 236.669 80.7467 236.48 79.1134C236.151 75.5667 235.728 71.9734 235.398 68.3334C233.093 68.9867 230.834 69.64 228.623 70.2934ZM235.069 64.4601C234.222 55.9201 233.563 47.3334 232.904 40.3335C231.587 48.0801 230.081 57.6934 229.093 66.2334C231.022 65.6734 232.999 65.0201 235.069 64.4601Z" fill="white"/>
<path d="M264.476 72.9534C261.653 76.64 257.418 78.9734 254.595 79.5334C253.184 79.7667 251.348 80.0934 250.125 78.88C246.549 75.1934 245.985 63.7601 246.079 55.6868C246.173 49.9934 246.643 41.3601 248.478 35.3402C249.372 32.3068 251.066 30.4868 255.019 29.0868C258.924 27.7802 261.229 27.9202 262.311 30.9068C264.146 35.6668 264.805 44.5801 264.146 55.2668C264.052 57.0868 263.3 57.8334 262.547 58.1601C261.7 58.7201 260.806 59.0001 259.912 59.3734C258.5 59.9334 257.606 59.5601 257.653 57.7868C258.218 45.0935 257.418 32.5402 256.007 33.1002C254.501 33.6602 253.184 43.3201 253.042 54.7534C252.854 66.1867 254.219 75.4734 256.289 75.4734C257.512 75.4734 258.359 73.8867 259.206 73.0001C260.288 71.7867 261.794 70.7134 263.347 70.6201C265.04 70.5734 265.558 71.5534 264.476 72.9534Z" fill="white"/>
<path d="M276.192 76.5468C276.286 78.1801 275.768 78.7867 275.015 79.2534C274.121 79.8134 273.416 80.2334 271.957 80.8867C270.875 81.4001 270.122 80.9801 270.122 79.7201C269.746 66.9334 269.228 50.1335 269.746 36.3202C269.84 34.9202 269.934 34.0335 271.157 33.1935C272.38 32.3535 273.416 31.8869 274.31 31.4669C275.392 30.9535 276.474 31.1402 276.38 32.6802C276.05 40.7535 275.815 49.0602 275.815 57.0401C278.968 46.9135 282.967 33.8469 284.849 28.3402C285.084 27.2669 285.837 25.9602 287.249 28.0135C288.472 29.9269 288.002 32.3069 287.249 34.2669C284.52 41.5002 281.932 49.1535 278.874 58.7201C281.791 63.7601 284.52 68.2868 287.155 72.4401C288.049 73.9334 288.049 75.0534 287.578 75.9868C287.061 76.8734 286.684 77.6201 285.649 78.2734C284.661 78.9268 283.72 79.0201 283.155 77.9468C280.991 74.1668 278.497 69.7801 275.862 65.4401C275.956 69.4068 276.051 73.0934 276.192 76.5468Z" fill="white"/>
<path d="M35.9943 92.7867C55.8734 92.7867 71.9886 76.8033 71.9886 57.0868C71.9886 37.3703 55.8734 21.3869 35.9943 21.3869C16.1152 21.3869 0 37.3703 0 57.0868C0 76.8033 16.1152 92.7867 35.9943 92.7867Z" fill="white"/>
<path d="M51.0977 39.3068C51.0977 39.3068 39.2408 45.7001 25.9252 37.1602C25.9252 37.1602 15.8562 37.1602 20.6555 51.4868C20.6555 51.4868 24.2784 61.5668 16.9855 60.9601C11.4334 60.4934 12.4215 64.8801 12.4215 64.8801C12.4215 64.8801 11.951 73.5601 20.7496 70.0134L20.6555 90.0333C20.185 103.753 43.9459 101.7 43.993 93.44V86.72C44.04 86.8134 73.6824 83.64 51.0977 39.3068Z" fill="#FBCABC"/>
<path d="M52.0388 41.8268C52.0388 41.8268 38.0646 50.1335 24.0433 40.2868C24.0433 40.2868 21.5966 41.8735 23.0552 48.8268C24.4197 55.4534 24.0903 62.5001 18.9617 61.6601C18.9617 61.6601 14.5389 39.0735 24.702 35.7135L51.1449 39.2135L52.0388 41.8268Z" fill="#F4B3A4"/>
<path d="M58.8142 32.9135C58.8142 32.9135 66.7659 38.7935 56.0382 47.8001L51.0978 39.3068C51.0978 39.3068 37.9704 44.9068 26.8193 37.3935L20.5144 39.8668C20.5144 39.8668 16.9855 44.0202 19.5263 50.4601C22.6317 58.2068 23.3374 61.8468 15.621 60.9601C15.621 60.9601 14.2095 61.9868 12.7509 58.0668L9.12793 45.4668L16.3738 41.3602C16.3738 41.3602 27.9955 33.9402 42.0168 33.8468C56.0852 33.7068 58.8142 32.9135 58.8142 32.9135Z" fill="#2E3D8F"/>
<path d="M11.1982 39.9135C9.17497 41.1735 6.5401 40.4268 5.45792 38.2802C4.23458 35.7602 3.43471 32.5402 5.92843 30.5335C11.2923 26.1469 17.3619 25.3535 21.0319 13.9202C21.0319 13.9202 37.2176 -7.77972 55.0971 4.86691C55.0971 4.86691 61.1197 14.8069 54.4855 21.4802C54.4855 21.4802 31.5244 18.4002 12.1392 39.3068L11.1982 39.9135Z" fill="white"/>
<path d="M54.5325 21.5269C54.5325 21.5269 26.4429 19.7069 12.7039 39.8202L14.0213 42.3868C14.0213 42.3868 26.4429 26.6136 54.1091 25.7269L54.5325 21.5269Z" fill="#FEC55F"/>
<path d="M12.4068 44.4579C13.6801 43.6108 13.9143 41.7441 12.9299 40.2886C11.9455 38.8331 10.1152 38.3399 8.84193 39.187C7.56864 40.0342 7.33446 41.9008 8.31888 43.3564C9.30329 44.8119 11.1335 45.3051 12.4068 44.4579Z" fill="#B9BFE1"/>
<path d="M28.9365 69.9201C21.9729 70.0134 23.4315 63.2935 29.1718 64.1801C34.0181 64.9268 36.3706 69.8268 28.9365 69.9201Z" fill="#F69885"/>
<path d="M54.0619 25.7268C54.0619 25.7268 67.1422 30.3935 57.5908 33.3335C57.5908 33.3335 33.6416 31.9802 15.9503 40.5201C15.9503 40.5668 26.4428 27.6402 54.0619 25.7268Z" fill="#5E99D2"/>
<path d="M59.3317 62.9201C59.614 63.9934 61.9195 68.0068 59.5199 68.1934C55.9911 68.4268 53.2621 65.6734 55.8499 63.7134C56.4616 63.2468 59.0965 61.9868 59.3317 62.9201Z" fill="#F69885"/>
<path d="M55.8028 49.3868L59.567 63.0134C58.1084 63.5268 56.4145 63.6201 54.3913 63.1534C48.3687 61.7534 39.1467 49.2468 55.8028 49.3868Z" fill="#FDE6E0"/>
<path d="M32.5595 49.1535C48.6511 49.0135 39.7583 61.1001 33.8769 62.4534C22.8198 65.0667 19.9027 49.2468 32.5595 49.1535Z" fill="#FDE6E0"/>
<path d="M50.298 57.3668C50.2039 57.3668 50.1098 57.3668 50.0157 57.3201C49.4981 57.1801 49.2628 56.6668 49.404 56.1534C50.0157 54.1468 51.286 52.9334 52.7446 52.9334C54.2032 52.9334 55.4266 54.1468 56.0382 56.1534C56.1794 56.6668 55.8971 57.1801 55.4266 57.3201C54.909 57.4601 54.3914 57.1801 54.2503 56.7134C53.8268 55.3134 53.1681 54.8001 52.7446 54.8001C52.2741 54.8001 51.6154 55.4068 51.1919 56.7134C51.0508 57.0868 50.7214 57.3668 50.298 57.3668Z" fill="#2E3D8F"/>
<path d="M32.3713 57.3668C32.2772 57.3668 32.1831 57.3668 32.089 57.3201C31.5714 57.1801 31.3361 56.6668 31.4773 56.1534C32.089 54.1468 33.3593 52.9334 34.8179 52.9334C36.2765 52.9334 37.4999 54.1468 38.1115 56.1534C38.2527 56.6668 37.9704 57.1801 37.4999 57.3201C36.9823 57.4601 36.4647 57.1801 36.3236 56.7134C35.9001 55.3134 35.2414 54.8001 34.8179 54.8001C34.3474 54.8001 33.6887 55.4068 33.2652 56.7134C33.1241 57.0868 32.7477 57.3668 32.3713 57.3668Z" fill="#2E3D8F"/>
<path d="M44.2754 69.9667C43.8049 69.9667 43.3814 69.5934 43.3344 69.1267C43.2873 68.6134 43.6637 68.1467 44.1813 68.1001C46.3456 67.9134 47.6631 67.5401 48.6512 66.2801C49.7804 64.7401 49.3099 64.0401 47.616 62.0801C45.2635 59.3734 41.7346 55.2201 44.6047 45.4668C44.7459 44.9535 45.2635 44.6735 45.781 44.8135C46.2986 44.9535 46.5809 45.4668 46.4397 45.9801C43.8519 54.8001 46.8632 58.3001 49.0746 60.8668C50.6273 62.6868 52.2741 64.6001 50.2039 67.4001C48.6982 69.4534 46.5338 69.7801 44.4165 69.9667C44.3224 69.9667 44.2754 69.9667 44.2754 69.9667Z" fill="#2E3D8F"/>
<path d="M27.6192 48.9668C30.0659 49.7135 35.8061 48.9201 37.3118 46.4935C40.7936 40.7535 20.091 46.5868 27.6192 48.9668Z" fill="#2E3D8F"/>
<path d="M45.8281 47.3801C47.7572 49.0134 53.3092 49.5734 55.5207 47.8001C60.8375 43.6001 39.6173 42.1535 45.8281 47.3801Z" fill="#2E3D8F"/>
<path d="M56.6027 63.9468C55.7558 63.9468 54.9089 63.8535 54.0149 63.6201C49.9685 62.6868 45.0751 57.5068 45.5457 53.4935C45.828 51.2535 47.7571 48.6402 55.5206 48.6868C61.0726 48.7335 63.237 51.4868 63.9898 53.1202C65.2131 55.6401 64.7897 58.7668 62.9076 61.0535C61.449 62.9201 59.1906 63.9468 56.6027 63.9468ZM55.3323 49.8535C52.1799 49.8535 47.1454 50.3668 46.7219 53.6335C46.2985 56.9468 50.8154 61.6601 54.2972 62.5001C57.4967 63.2468 60.3198 62.4535 62.0607 60.3535C63.6134 58.4401 63.9898 55.8268 62.9547 53.6802C61.8254 51.2535 59.1435 49.9468 55.5206 49.9002C55.4735 49.8535 55.3794 49.8535 55.3323 49.8535Z" fill="#2E3D8F"/>
<path d="M31.2892 63.2467C28.7955 63.2467 26.584 62.2667 25.1255 60.4467C23.3375 58.2534 22.914 55.2668 24.0903 52.7934C24.8431 51.2068 26.9134 48.5001 32.3243 48.5001C39.8525 48.4534 41.7346 51.0201 42.0169 53.1668C42.4874 57.0401 37.6882 62.0334 33.83 62.9667C32.936 63.1534 32.0891 63.2467 31.2892 63.2467ZM32.3243 49.6668C28.7955 49.7134 26.2547 50.9734 25.1725 53.3068C24.1844 55.3601 24.5138 57.8801 26.0194 59.7467C27.6662 61.8001 30.4423 62.5467 33.5006 61.8467C36.8412 61.0534 41.217 56.5268 40.7936 53.3068C40.5583 50.9268 37.547 49.6201 32.3243 49.6668Z" fill="#2E3D8F"/>
<path d="M44.5576 54.5201C44.5105 54.5201 44.4634 54.5201 44.4164 54.5201C43.5695 54.3334 42.4873 54.3334 41.6874 54.4734C41.3581 54.5201 41.0758 54.3334 41.0287 54.0068C40.9816 53.6801 41.1699 53.4001 41.4992 53.3534C42.4402 53.2134 43.6636 53.2134 44.6517 53.4468C44.981 53.4934 45.1692 53.8201 45.1222 54.1468C45.0751 54.3334 44.8399 54.5201 44.5576 54.5201Z" fill="#2E3D8F"/>
<path d="M38.441 87.98C37.2177 87.98 35.9943 87.9334 34.6769 87.84C34.1593 87.7934 33.7829 87.3734 33.7829 86.86C33.7829 86.3467 34.2534 85.9734 34.771 85.9734C46.2515 86.7667 53.7327 83.8734 57.1204 77.2467C63.19 65.3468 54.2032 45.1402 50.7214 40.3802C42.2992 43.3668 33.2183 42.5268 26.2547 38.1402C25.8312 37.8602 25.6901 37.3002 25.9724 36.8335C26.2547 36.4135 26.8193 36.2735 27.2898 36.5535C33.9241 40.7535 42.6756 41.4068 50.7214 38.3735C51.0978 38.2335 51.5213 38.3268 51.7565 38.6535C55.1442 42.5735 65.5896 64.7401 58.7672 78.0867C55.5207 84.6667 48.6511 87.98 38.441 87.98Z" fill="#2E3D8F"/>
<path d="M33.5476 101C33.2183 101 32.8418 101 32.4654 100.953C26.3488 100.673 19.8557 97.7334 19.8557 92.7867V71.3201C18.303 71.6468 15.6681 71.9268 13.739 70.5734C12.1863 69.4535 11.4335 67.5401 11.5276 64.9268C11.5746 62.9668 12.0451 61.6601 12.9391 60.9135C14.1154 59.8868 15.7151 60.1201 17.1267 60.2601C19.3851 60.5401 20.4203 60.5401 20.7496 58.1135C21.0319 56.0135 20.185 54.1002 19.3381 52.0935C17.7854 48.5935 16.0445 44.6735 19.7145 38.8402C19.9968 38.4202 20.5614 38.2802 21.0319 38.5602C21.4554 38.8402 21.5966 39.4002 21.3143 39.8669C18.2089 44.9068 19.5734 48.0335 21.079 51.3935C22.02 53.5402 23.0081 55.7801 22.6317 58.4401C22.02 62.7801 18.9617 62.4068 16.8914 62.1735C15.7622 62.0335 14.7271 61.8935 14.1624 62.3601C13.6919 62.7335 13.4567 63.6668 13.4096 65.0201C13.3626 66.9801 13.8331 68.3801 14.8682 69.0801C16.5621 70.2934 19.4792 69.5934 20.5144 69.2668C20.7967 69.1735 21.126 69.2201 21.3613 69.3601C21.5966 69.5468 21.7848 69.8268 21.7848 70.1068V92.7867C21.7848 96.4267 27.2898 98.8534 32.6066 99.0867C37.1706 99.2734 42.6285 97.92 43.099 93.3467L43.1931 86.8134C43.1931 86.3001 43.6166 85.8801 44.1342 85.8801C44.6517 85.8801 45.0752 86.3001 45.0752 86.8134L44.9811 93.3934V93.4401C44.6047 97.0334 41.4052 101 33.5476 101Z" fill="#2E3D8F"/>
<path d="M56.0381 48.7334C55.8029 48.7334 55.5676 48.6401 55.3794 48.4534C55.003 48.0801 55.003 47.5201 55.3794 47.1468C63.3782 39.2135 60.3198 35.9468 58.1084 33.5668C57.779 33.1935 57.779 32.5868 58.1554 32.2601C58.5319 31.9335 59.1435 31.9335 59.4729 32.3068C63.3782 36.5068 64.3662 40.8468 56.6969 48.4534C56.5557 48.6401 56.3204 48.7334 56.0381 48.7334Z" fill="#2E3D8F"/>
<path d="M13.8802 61.4735C13.5038 61.4735 13.1744 61.2401 13.0332 60.9135C10.3043 54.4735 8.75157 49.2468 8.18695 44.5802C8.1399 44.0669 8.46926 43.6002 8.98683 43.5535C9.50439 43.5069 9.97491 43.8335 10.022 44.3469C10.5866 48.8735 12.0922 53.8668 14.7741 60.1668C14.9624 60.6335 14.7271 61.1935 14.2566 61.3801C14.1154 61.4268 13.9743 61.4735 13.8802 61.4735Z" fill="#2E3D8F"/>
<path d="M14.0213 43.3201C13.9272 43.3201 13.786 43.2735 13.6919 43.2268C13.4096 43.0401 13.3155 42.7135 13.5037 42.4335C13.8801 41.8268 23.1493 27.4068 54.062 25.2135C54.3914 25.1668 54.6737 25.4468 54.6737 25.7735C54.6737 26.1002 54.4384 26.3802 54.1091 26.3802C23.855 28.5268 14.5859 42.9001 14.4918 43.0401C14.3977 43.2268 14.2095 43.3201 14.0213 43.3201Z" fill="#2E3D8F"/>
<path d="M11.057 45.8401C9.69253 45.8401 8.32804 45.0935 7.52816 43.7401C6.39893 41.8268 6.91649 39.4468 8.70445 38.4201C9.59842 37.9068 10.5865 37.8135 11.6216 38.1401C12.5627 38.4668 13.4096 39.1201 13.9271 40.0535C15.0564 41.9668 14.5388 44.3468 12.7509 45.3735C12.2333 45.7001 11.6216 45.8401 11.057 45.8401ZM9.17496 42.8068C9.78663 43.8335 10.9629 44.2535 11.8098 43.7868C12.6568 43.2735 12.892 42.0601 12.2804 41.0335C11.998 40.5201 11.5275 40.1468 11.01 39.9601C10.5395 39.8201 10.0219 39.8201 9.64547 40.0535C8.79855 40.5201 8.56329 41.7801 9.17496 42.8068Z" fill="#2E3D8F"/>
<path d="M14.0213 43.6935C13.6919 43.6935 13.4096 43.5535 13.2214 43.2735C12.9391 42.8535 13.0802 42.2468 13.5037 41.9669C27.1016 33.4269 40.8406 33.1002 49.9685 32.8669C56.4146 32.7269 59.7552 32.5402 59.8964 30.5335C59.9905 29.0402 56.4616 26.9402 53.9208 26.5669C53.4033 26.5202 53.0739 26.0536 53.121 25.5402L53.5915 21.3869C53.6385 20.8736 54.1091 20.5002 54.6266 20.5469C55.1442 20.5936 55.5206 21.0602 55.4735 21.5736L55.0971 24.8402C57.8732 25.5402 61.9196 27.7802 61.7784 30.5802C61.5432 34.4069 56.9792 34.5002 50.0156 34.6869C41.1229 34.9202 27.7132 35.2469 14.5388 43.5068C14.3506 43.6468 14.1624 43.6935 14.0213 43.6935Z" fill="#2E3D8F"/>
<path d="M12.845 40.1935C12.7509 40.1935 12.6568 40.1935 12.6098 40.1468C12.3275 40.0068 12.1863 39.6802 12.3275 39.3535C12.4216 39.1668 14.5389 34.8269 20.7967 30.3469C26.537 26.2402 37.0765 21.2936 54.5326 20.9202C54.8619 20.9202 55.1442 21.1536 55.1442 21.4802C55.1442 21.8069 54.909 22.0869 54.5796 22.0869C45.1693 22.2736 31.7597 24.0469 21.5966 31.2335C15.4799 35.5269 13.4097 39.8202 13.3626 39.8668C13.2685 40.0535 13.0803 40.1935 12.845 40.1935Z" fill="#2E3D8F"/>
<path d="M7.95167 41.8735C7.81052 41.8735 7.62231 41.8268 7.48116 41.7802C4.84628 40.3802 3.29359 37.8135 3.34064 34.9202C3.38769 31.8402 5.3168 28.9935 8.28103 27.5002L8.42219 27.4069C13.2214 25.0269 16.0916 23.6269 18.8205 16.4869C23.1022 5.19359 33.1712 0.573602 41.1699 0.0602695C48.8393 -0.453063 55.4736 2.34693 58.1084 7.15358C59.7082 10.1402 60.5551 15.1336 55.2383 22.0869C54.909 22.5069 54.3443 22.6002 53.9209 22.2735C53.4974 21.9469 53.4033 21.3869 53.7327 20.9669C57.4497 16.1136 58.3908 11.6336 56.4616 8.08692C54.2502 3.93359 48.1806 1.46027 41.3582 1.92693C31.7597 2.58026 23.9962 8.27358 20.6555 17.1869C17.6913 24.9802 14.2095 26.7069 9.36322 29.1335L9.22206 29.2269C6.86949 30.3935 5.36385 32.6335 5.3168 35.0135C5.26975 37.2068 6.39898 39.0735 8.46924 40.1935C8.93975 40.4268 9.08091 40.9868 8.84565 41.4535C8.61039 41.6868 8.28103 41.8735 7.95167 41.8735Z" fill="#2E3D8F"/>
<path d="M36.653 69.9201C38.8173 69.8267 38.488 71.3667 46.9572 70.9934C51.8506 70.8067 46.4397 81.0267 40.323 79.1134C34.5357 77.2934 32.3242 70.0601 36.653 69.9201Z" fill="#2E3D8F"/>
<path d="M15.8092 67.2134C15.621 67.2134 15.4327 67.1201 15.3386 66.9801C14.3976 65.7667 14.5388 64.6001 14.9622 63.9001C15.4327 63.2001 16.2326 62.8734 17.0795 63.0601C17.4089 63.1068 17.5971 63.4334 17.5501 63.7601C17.503 64.0867 17.1737 64.2734 16.8443 64.2267C16.4679 64.1334 16.1385 64.2734 15.9503 64.5534C15.7151 64.8801 15.7151 65.5334 16.2797 66.2801C16.4679 66.5601 16.4208 66.8867 16.1385 67.0734C16.0915 67.1667 15.9503 67.2134 15.8092 67.2134Z" fill="#2E3D8F"/>
</svg>
